g Cuerpo_04
v 291 246 32 0.494118 0.494118 0.52549
v 294 246 32 0.494118 0.494118 0.52549
v 294 249 32 0.494118 0.494118 0.52549
v 291 249 32 0.494118 0.494118 0.52549
v 291 246 30 0.494118 0.494118 0.52549
v 294 246 30 0.494118 0.494118 0.52549
v 291 249 30 0.494118 0.494118 0.52549
v 294 249 30 0.494118 0.494118 0.52549
v 295 245 30 0.494118 0.494118 0.52549
v 295 250 30 0.494118 0.494118 0.52549
v 290 250 30 0.494118 0.494118 0.52549
v 290 245 30 0.494118 0.494118 0.52549
v 295 245 0 0.494118 0.494118 0.52549
v 295 250 0 0.494118 0.494118 0.52549
v 290 245 0 0.494118 0.494118 0.52549
v 290 250 0 0.494118 0.494118 0.52549
vn 0 0 1
vn 0 -1 0
vn -1 0 0
vn -0 1 -0
vn 1 -0 -0
vn 0 0 1
vn -0 -0 -1
vn 0 -1 0
vn -1 -0 0
vn -0 1 -0
vt -291 -246
vt -294 -246
vt -294 -249
vt -291 -249
vt -0 -1.5
vt 2 -1.5
vt 2 1.5
vt 0 1.5
vt 0 1.5
vt -2 1.5
vt -2 -1.5
vt 0 -1.5
vt 0 1.5
vt 2 1.5
vt 2 -1.5
vt -0 -1.5
vt 0 -1.5
vt -2 -1.5
vt -2 1.5
vt 0 1.5
vt 295 245
vt 295 250
vt 294 249
vt 290 250
vt 291 249
vt 290 245
vt 291 246
vt 294 246
vt 0 -2.5
vt -30 -2.5
vt -30 2.5
vt 0 2.5
vt 290 245
vt 290 250
vt 295 250
vt 295 245
vt 0 12.5
vt 30 12.5
vt 30 17.5
vt 0 17.5
vt 0 2.5
vt 30 2.5
vt 30 -2.5
vt -0 -2.5
vt 0 2.5
vt 30 2.5
vt 30 -2.5
vt -0 -2.5
f 1/1/1 2/2/1 3/3/1
f 3/3/1 4/4/1 1/1/1
f 1/5/2 5/6/2 6/7/2
f 6/7/2 2/8/2 1/5/2
f 4/9/3 7/10/3 5/11/3
f 5/11/3 1/12/3 4/9/3
f 3/13/4 8/14/4 7/15/4
f 7/15/4 4/16/4 3/13/4
f 2/17/5 6/18/5 8/19/5
f 8/19/5 3/20/5 2/17/5
f 9/21/6 10/22/6 8/23/6
f 10/22/6 11/24/6 7/25/6
f 7/25/6 8/23/6 10/22/6
f 11/24/6 12/26/6 5/27/6
f 5/27/6 7/25/6 11/24/6
f 9/21/6 6/28/6 5/27/6
f 5/27/6 12/26/6 9/21/6
f 8/23/6 6/28/6 9/21/6
f 9/29/5 13/30/5 14/31/5
f 14/31/5 10/32/5 9/29/5
f 15/33/7 16/34/7 14/35/7
f 14/35/7 13/36/7 15/33/7
f 12/37/8 15/38/8 13/39/8
f 13/39/8 9/40/8 12/37/8
f 11/41/9 16/42/9 15/43/9
f 15/43/9 12/44/9 11/41/9
f 10/45/10 14/46/10 16/47/10
f 16/47/10 11/48/10 10/45/10
